:SAMPLES-PER-SECOND 30
:FULLY-SPECIFIED
:DEGREES
179
root  -21.3587 34.1806 15.3062 -161.463 38.5919 -173.376
RightUpLeg  -24.5134 -19.0806 1.97938
RightLeg  20.6007 5.56579 1.68783
RightFoot  6.64231 -0.0178762 0.807682
RightToes  -33.9638 -0.172147 -0.27855
Spine  2.28627 0.731383 -1.27897
Spine1  4.46136 1.65284 -1.96636
HEad  -34.106 -22.625 10.1648
LeftShoulder1  -1.94126e-019 -3.10601e-018 -2.51263e-017
LeftArm  -17.9788 28.5136 -67.9935
LeftForeArm  22.7084 -52.9127 -13.0357
LeftHand  -0.845741 -1.01672 15.4365
RightShoulder  -4.96962e-017 0 -2.36833e-017
RightArm  -19.9476 -18.0798 71.3575
RightForeArm  51.9881 58.9243 13.8693
RightHand  -0.423422 -1.14666 -11.5129
LeftUpLeg  -32.7333 11.391 4.1085
LeftLeg  29.0878 8.84607 4.17313
LeftFoot  1.73111 -0.00447666 0.457868
LeftToes  -22.4341 1.9075e-006 4.29692e-008
180
root  -21.3456 33.8877 15.704 -162.848 37.6083 -173.967
RightUpLeg  -22.6962 -19.8289 1.73312
RightLeg  19.1258 5.95781 1.64136
RightFoot  2.96783 0.000580846 0.465936
RightToes  -35.2815 -0.18193 -0.286947
Spine  2.79581 0.547047 -0.759952
Spine1  5.46378 1.34478 -1.04838
HEad  -34.4811 -23.4336 10.1075
LeftShoulder1  -1.94126e-019 -3.10601e-018 -2.51263e-017
LeftArm  -14.3343 24.7247 -68.5556
LeftForeArm  23.1784 -52.6048 -12.8379
LeftHand  -0.657032 -0.531591 12.9862
RightShoulder  -4.96962e-017 0 -2.36833e-017
RightArm  -18.3854 -13.1281 71.0414
RightForeArm  50.0921 54.7928 11.6761
RightHand  -0.417623 -1.26522 -11.6678
LeftUpLeg  -34.141 11.3374 4.11574
LeftLeg  32.2772 7.73577 4.19163
LeftFoot  0.958688 -0.0012624 0.312458
LeftToes  -21.8396 1.9075e-006 4.29692e-008
181
root  -21.3796 33.471 16.2267 -163.909 37.659 -173.853
RightUpLeg  -23.5243 -17.1549 1.67475
RightLeg  22.1781 3.28408 1.09455
RightFoot  0.0818277 -0.000254278 0.182596
RightToes  -34.9841 -0.179705 -0.285071
Spine  3.5659 0.944486 -0.198713
Spine1  6.97575 2.22154 -0.068575
HEad  -36.2972 -23.9811 10.3766
LeftShoulder1  -1.94126e-019 -3.10601e-018 -2.51263e-017
LeftArm  -10.1972 19.1406 -69.2899
LeftForeArm  23.0331 -51.4813 -12.2843
LeftHand  -0.650937 -0.648061 12.6286
RightShoulder  -4.96962e-017 0 -2.36833e-017
RightArm  -18.1041 -6.66244 71.0278
RightForeArm  47.8904 47.1942 8.60313
RightHand  -0.429433 -1.24107 -11.9337
LeftUpLeg  -36.1749 11.6638 4.70711
LeftLeg  36.8212 7.10628 4.61178
LeftFoot  0.221113 -8.42419e-005 0.205339
LeftToes  -20.3837 1.9075e-006 4.29692e-008
182
root  -21.5277 33.1098 16.7172 -164.798 39.134 -173.648
RightUpLeg  -27.0892 -13.0367 1.49196
RightLeg  29.4166 0.507553 0.235246
RightFoot  -1.82311 -0.0059382 0.200241
RightToes  -30.9028 -0.150187 -0.258191
Spine  4.60877 1.39108 0.337668
Spine1  9.05132 3.18391 0.86018
HEad  -38.1484 -23.3896 10.4535
LeftShoulder1  -1.94126e-019 -3.10601e-018 -2.51263e-017
LeftArm  -8.38701 13.304 -71.1898
LeftForeArm  23.7394 -48.9526 -11.0676
LeftHand  -0.64874 -0.612759 12.6576
RightShoulder  -4.96962e-017 0 -2.36833e-017
RightArm  -16.4612 3.34517 71.302
RightForeArm  45.6118 33.5071 4.78279
RightHand  -0.38053 -2.14408 -13.3919
LeftUpLeg  -37.0145 12.5356 5.1013
LeftLeg  39.515 7.34883 5.27076
LeftFoot  -0.634561 -0.000439981 0.0820295
LeftToes  -19.8847 1.9075e-006 4.29692e-008
183
root  -21.7 32.802 17.1521 -165.493 41.7305 -175.208
RightUpLeg  -30.6582 -11.8224 0.567227
RightLeg  33.6505 1.25374 0.70846
RightFoot  -3.27469 -0.00970089 0.220512
RightToes  -30.2589 -0.145708 -0.253761
Spine  5.15098 2.1161 0.489713
Spine1  10.018 5.29132 0.44569
HEad  -37.9994 -22.1048 9.38841
LeftShoulder1  -1.94126e-019 -3.10601e-018 -2.51263e-017
LeftArm  -6.90203 8.8094 -72.7049
LeftForeArm  22.0094 -46.1259 -10.0454
LeftHand  -0.633047 -0.104477 13.4529
RightShoulder  -4.96962e-017 0 -2.36833e-017
RightArm  -14.116 12.0058 72.5123
RightForeArm  48.3506 21.0004 2.0467
RightHand  -0.387674 -2.0102 -13.1214
LeftUpLeg  -38.317 14.6564 3.55104
LeftLeg  40.9274 7.48448 5.64914
LeftFoot  -1.20816 0.00291197 0.0500259
LeftToes  -20.0933 1.9075e-006 4.29692e-008
184
root  -21.7907 32.6418 17.481 -166.113 42.6334 -176.517
RightUpLeg  -32.347 -12.7968 0.214933
RightLeg  35.1237 2.28999 1.38312
RightFoot  -4.18691 -0.00651948 0.178856
RightToes  -30.7463 -0.149094 -0.25712
Spine  5.43281 2.63844 0.836559
Spine1  10.5101 6.84947 0.498668
HEad  -36.7571 -22.0777 8.11578
LeftShoulder1  -1.94126e-019 -3.10601e-018 -2.51263e-017
LeftArm  -4.94853 5.0005 -74.345
LeftForeArm  21.0516 -43.6178 -9.19201
LeftHand  -0.60197 -0.447259 12.0751
RightShoulder  -4.96962e-017 0 -2.36833e-017
RightArm  -17.493 17.5031 73.5634
RightForeArm  56.4163 13.3571 1.33732
RightHand  -0.456501 -1.03474 -12.1115
LeftUpLeg  -39.5125 15.6289 2.52138
LeftLeg  41.9532 7.18087 5.62535
LeftFoot  -1.15469 0.00324619 0.125746
LeftToes  -21.2626 1.9075e-006 4.29692e-008
185
root  -21.9009 32.6833 17.7354 -166.298 42.975 -177.371
RightUpLeg  -33.3432 -12.9486 -0.0293951
RightLeg  35.2447 2.37809 1.44365
RightFoot  -3.88355 -0.00756874 0.212181
RightToes  -31.3009 -0.152981 -0.260905
Spine  5.5762 3.04384 1.14609
Spine1  10.8627 7.75191 1.00264
HEad  -37.0023 -22.8109 7.66467
LeftShoulder1  -1.94126e-019 -3.10601e-018 -2.51263e-017
LeftArm  -2.65509 2.73721 -75.8038
LeftForeArm  23.0213 -43.5301 -9.02497
LeftHand  -0.574874 -1.27182 10.1718
RightShoulder  -4.96962e-017 0 -2.36833e-017
RightArm  -23.2011 20.8188 73.7235
RightForeArm  64.1416 8.59892 1.42658
RightHand  -0.429912 -1.57125 -12.9448
LeftUpLeg  -39.8357 17.103 1.44626
LeftLeg  40.7177 6.50334 4.87796
LeftFoot  -0.697735 0.000415231 0.229639
LeftToes  -22.635 1.9075e-006 4.29692e-008
186
root  -22.0012 32.9293 17.9801 -165.61 43.7065 -178.142
RightUpLeg  -33.8614 -12.7073 -0.162749
RightLeg  32.9282 2.25952 1.25127
RightFoot  -3.18323 -0.00895522 0.240182
RightToes  -34.4611 -0.175816 -0.281745
Spine  5.19194 3.06494 1.33516
Spine1  10.2144 7.64085 1.60888
HEad  -37.1457 -22.5852 6.82768
LeftShoulder1  -1.94126e-019 -3.10601e-018 -2.51263e-017
LeftArm  -0.235929 3.39087 -76.3649
LeftForeArm  24.935 -46.0002 -9.7841
LeftHand  -0.621988 -1.19527 11.1129
RightShoulder  -4.96962e-017 0 -2.36833e-017
RightArm  -21.9154 21.5424 74.3616
RightForeArm  64.4949 8.5649 1.42307
RightHand  -0.404965 -1.72917 -12.6927
LeftUpLeg  -39.9983 19.022 0.0810134
LeftLeg  37.8988 6.2235 4.21021
LeftFoot  -0.706894 0.000367152 0.220964
LeftToes  -26.7127 1.9075e-006 4.29692e-008
